<svg xmlns="http://www.w3.org/2000/svg" viewBox="0 0 108.45 108.45"><defs><style>.cls-1{fill:none;stroke:#2e2766;stroke-miterlimit:10;}.cls-2{font-size:11.02px;fill:#2d2766;font-family:Raleway-Medium, Raleway;letter-spacing:0.04em;}.cls-3{fill:#2e2766;}</style></defs><title>circle-icon-3</title><g id="Layer_2" data-name="Layer 2"><g id="Layer_1-2" data-name="Layer 1"><circle class="cls-1" cx="54.22" cy="54.22" r="53.72"/><text class="cls-2" transform="translate(10.26 48.28)">Bio-Degradable</text><path class="cls-3" d="M71.67,63.05l-.6,1.69a54.27,54.27,0,0,1-2.48,6.31,19.69,19.69,0,0,1-3,4.36,20.57,20.57,0,0,1-4.86,4,24.67,24.67,0,0,1-4.92,2.24l-1.38.43-.21,0c.23-.58.43-1.13.67-1.65.56-1.21,1.12-2.42,1.74-3.6A26.56,26.56,0,0,1,59.85,72a15.83,15.83,0,0,1,2.6-2.5c.21-.17.16-.16.06-.11l-.26.14-.26.16a17.43,17.43,0,0,0-2.87,2.53,31,31,0,0,0-4,5.55c-.63,1.09-1.2,2.21-1.8,3.32a.23.23,0,0,1-.14.11c-.14-.56-.31-1.12-.42-1.68a14.39,14.39,0,0,1,0-5.37,14.89,14.89,0,0,1,1.65-4.61,16,16,0,0,1,2-2.83,15,15,0,0,1,4.36-3.45,13.23,13.23,0,0,1,6.37-1.55,10,10,0,0,1,4.56,1.17Z"/><path class="cls-3" d="M36.78,65.5A11.1,11.1,0,0,1,37,64.05c.24-.81.55-1.59.83-2.38.06-.18.17-.2.34-.14,1.92.69,3.85,1.33,5.76,2.06A20.74,20.74,0,0,1,48.59,66a19.78,19.78,0,0,1,4.27,4.07.4.4,0,0,1,.06.32,24.5,24.5,0,0,0-1.16,5.91l0,.06a21.84,21.84,0,0,1-7.16-6c-.37-.39-.3,0-.17.17.27.38.52.77.8,1.14a21.29,21.29,0,0,0,4.68,4.37c.54.39,1.1.75,1.66,1.12a.37.37,0,0,1,.2.33c.05,1,.11,2,.17,3a.85.85,0,0,1,0,.14c-.59,0-1.17-.08-1.76-.15a14.68,14.68,0,0,1-4.61-1.31A15.9,15.9,0,0,1,38.67,73a13.51,13.51,0,0,1-1.73-4.75c-.05-.33-.11-.65-.17-1Q36.78,66.4,36.78,65.5Z"/></g></g></svg>