<svg xmlns="http://www.w3.org/2000/svg" viewBox="0 0 108.45 108.45"><defs><style>.cls-1{fill:none;stroke:#2e2766;stroke-miterlimit:10;}.cls-2{font-size:11.02px;font-family:Raleway-Medium, Raleway;letter-spacing:0.04em;}.cls-2,.cls-7{fill:#2d2766;}.cls-3{letter-spacing:0.03em;}.cls-4{letter-spacing:0.03em;}.cls-5{letter-spacing:0.04em;}.cls-6{letter-spacing:0.03em;}</style></defs><title>circle-icon-1</title><g id="Layer_2" data-name="Layer 2"><g id="Layer_1-2" data-name="Layer 1"><circle class="cls-1" cx="54.22" cy="54.22" r="53.72"/><text class="cls-2" transform="translate(21.76 43.07)">Guara<tspan class="cls-3" x="32.91" y="0">n</tspan><tspan class="cls-4" x="39.8" y="0">t</tspan><tspan class="cls-5" x="44.05" y="0">eed</tspan><tspan x="-0.3" y="13.85">Disi</tspan><tspan class="cls-3" x="19.87" y="13.85">n</tspan><tspan class="cls-6" x="26.76" y="13.85">f</tspan><tspan class="cls-5" x="30.85" y="13.85">ection</tspan></text><path class="cls-7" d="M43.63,80.89a34.65,34.65,0,0,1,5.25,6.27,1.52,1.52,0,0,0,2.59,0A76.29,76.29,0,0,1,64.82,70.63c1.41-1.33-.72-3.45-2.12-2.12A79.17,79.17,0,0,0,48.88,85.65h2.59a38,38,0,0,0-5.72-6.88c-1.4-1.33-3.52.79-2.12,2.12Z"/></g></g></svg>