<svg xmlns="http://www.w3.org/2000/svg" viewBox="0 0 108.45 108.45"><defs><style>.cls-1{fill:none;stroke:#2e2766;stroke-miterlimit:10;}.cls-2{fill:#2d2766;}.cls-3{opacity:0.42;}.cls-4{fill:#483281;}.cls-5{opacity:0.66;}</style></defs><title>circle-icon-4_1</title><g id="Layer_2" data-name="Layer 2"><g id="Layer_1-2" data-name="Layer 1"><circle class="cls-1" cx="54.22" cy="54.22" r="53.72"/><path class="cls-2" d="M14,37.83a4.19,4.19,0,0,1,.25-1.41A3.91,3.91,0,0,1,15,35.17a3.66,3.66,0,0,1,1.17-.9,3.53,3.53,0,0,1,1.58-.34,3.3,3.3,0,0,1,1.8.47,3,3,0,0,1,1.11,1.23l-.78.51a2.27,2.27,0,0,0-.42-.63,2.19,2.19,0,0,0-.54-.41,2.32,2.32,0,0,0-.6-.22,2.9,2.9,0,0,0-.61-.07,2.39,2.39,0,0,0-1.15.27,2.65,2.65,0,0,0-.84.71,3,3,0,0,0-.51,1,3.64,3.64,0,0,0-.17,1.1,3.36,3.36,0,0,0,.2,1.17,3.23,3.23,0,0,0,.57,1,2.77,2.77,0,0,0,.86.68,2.34,2.34,0,0,0,1.08.25,2.75,2.75,0,0,0,.63-.08,2.32,2.32,0,0,0,.62-.25,2.66,2.66,0,0,0,.56-.43,2.09,2.09,0,0,0,.42-.62l.83.45a2.44,2.44,0,0,1-.52.78,3.32,3.32,0,0,1-.76.57,3.86,3.86,0,0,1-.9.35,3.72,3.72,0,0,1-.93.12,3.13,3.13,0,0,1-1.48-.35A3.94,3.94,0,0,1,15,40.59a4.2,4.2,0,0,1-.76-1.29A4.16,4.16,0,0,1,14,37.83Z"/><path class="cls-2" d="M24.83,41.91a2.82,2.82,0,0,1-2.1-.89,2.92,2.92,0,0,1-.59-.95,3.17,3.17,0,0,1,0-2.28,3,3,0,0,1,.6-.95,2.89,2.89,0,0,1,4.19,0,3,3,0,0,1,.6.95,3.06,3.06,0,0,1,.21,1.15,3.11,3.11,0,0,1-.21,1.14A2.86,2.86,0,0,1,26,41.67,2.84,2.84,0,0,1,24.83,41.91Zm-1.91-3a2.3,2.3,0,0,0,.15.84,2.14,2.14,0,0,0,.41.67,1.92,1.92,0,0,0,.61.45,1.76,1.76,0,0,0,1.49,0,2,2,0,0,0,.61-.46,2.14,2.14,0,0,0,.41-.68,2.36,2.36,0,0,0,.15-.84,2.34,2.34,0,0,0-.15-.83,2.14,2.14,0,0,0-.41-.68,2,2,0,0,0-.61-.46,1.71,1.71,0,0,0-.74-.17,1.66,1.66,0,0,0-.74.17,2,2,0,0,0-.61.46,2.2,2.2,0,0,0-.41.68A2.34,2.34,0,0,0,22.92,38.94Z"/><path class="cls-2" d="M29.38,33.75h1v6.56a.7.7,0,0,0,.17.5A.62.62,0,0,0,31,41a1.28,1.28,0,0,0,.29,0l.31-.09.15.78a3.21,3.21,0,0,1-.57.17,3,3,0,0,1-.58.07,1.21,1.21,0,0,1-.89-.32,1.19,1.19,0,0,1-.33-.89Z"/><path class="cls-2" d="M35.47,41.91a2.82,2.82,0,0,1-2.1-.89,2.92,2.92,0,0,1-.59-.95,3.17,3.17,0,0,1,0-2.28,3,3,0,0,1,.6-.95,2.89,2.89,0,0,1,4.19,0,3,3,0,0,1,.6.95,3.06,3.06,0,0,1,.21,1.15,3.11,3.11,0,0,1-.21,1.14,2.86,2.86,0,0,1-1.52,1.6A2.84,2.84,0,0,1,35.47,41.91Zm-1.91-3a2.3,2.3,0,0,0,.15.84,2.14,2.14,0,0,0,.41.67,1.92,1.92,0,0,0,.61.45,1.76,1.76,0,0,0,1.49,0,2,2,0,0,0,.61-.46,2.14,2.14,0,0,0,.41-.68,2.36,2.36,0,0,0,.15-.84,2.34,2.34,0,0,0-.15-.83,2.14,2.14,0,0,0-.41-.68,2,2,0,0,0-.61-.46,1.71,1.71,0,0,0-.74-.17,1.66,1.66,0,0,0-.74.17,2,2,0,0,0-.61.46,2.2,2.2,0,0,0-.41.68A2.34,2.34,0,0,0,33.56,38.94Z"/><path class="cls-2" d="M41.78,41.91a1.62,1.62,0,0,1-1.37-.61,3,3,0,0,1-.46-1.81V36h1v3.26q0,1.76,1.22,1.76a1.87,1.87,0,0,0,1.12-.38,2.24,2.24,0,0,0,.78-1V36h1v4.56c0,.23.1.35.31.35v.84l-.26,0h-.18a.7.7,0,0,1-.48-.17.58.58,0,0,1-.2-.42l0-.67a2.67,2.67,0,0,1-1,1A2.8,2.8,0,0,1,41.78,41.91Z"/><path class="cls-2" d="M50.12,36.89a2.49,2.49,0,0,0-1.28.38,1.91,1.91,0,0,0-.79,1V41.8h-1V36H48v1.33a2.73,2.73,0,0,1,.78-1,2,2,0,0,1,1-.41h.32Z"/><path class="cls-2" d="M60,40.92v.88H54.65V34h5.22v.88H55.64v2.54h3.67v.83H55.64v2.7Z"/><path class="cls-2" d="M61.83,36.8H61V36h.78v0a2.2,2.2,0,0,1,.12-.7,1.89,1.89,0,0,1,.35-.62,1.8,1.8,0,0,1,.57-.45,1.69,1.69,0,0,1,.78-.17,2.74,2.74,0,0,1,.72.09,3.38,3.38,0,0,1,.58.21,2,2,0,0,1,.68-.52,2.23,2.23,0,0,1,1-.2,2.75,2.75,0,0,1,1.05.19,5.13,5.13,0,0,1,.77.38l-.42.72a1.76,1.76,0,0,0-.57-.32,2.13,2.13,0,0,0-.75-.13,1.19,1.19,0,0,0-.57.13,1.15,1.15,0,0,0-.39.33,1.27,1.27,0,0,0-.22.45,2,2,0,0,0-.07.51V36h2.94V41.8h-1v-5h-2v5h-1v-5H62.8v5h-1ZM64.47,36a3.23,3.23,0,0,1,0-.49,1.55,1.55,0,0,1,.13-.46,1,1,0,0,0-.41-.16,2.66,2.66,0,0,0-.42,0,1.07,1.07,0,0,0-.47.09.88.88,0,0,0-.31.25,1,1,0,0,0-.18.35,1.46,1.46,0,0,0-.06.4V36Z"/><path class="cls-2" d="M70,38.91a3.15,3.15,0,0,1,.21-1.15,2.81,2.81,0,0,1,.6-.94,2.86,2.86,0,0,1,.92-.64,2.92,2.92,0,0,1,1.2-.24,2.8,2.8,0,0,1,1.48.38,2.47,2.47,0,0,1,.94,1l-.95.3a1.58,1.58,0,0,0-.62-.63,1.76,1.76,0,0,0-.88-.23,1.8,1.8,0,0,0-.75.16,1.78,1.78,0,0,0-.61.45,2.2,2.2,0,0,0-.4.67,2.46,2.46,0,0,0,0,1.7,2.26,2.26,0,0,0,.41.69,1.89,1.89,0,0,0,.61.46,1.71,1.71,0,0,0,.74.17,1.79,1.79,0,0,0,.5-.07,1.89,1.89,0,0,0,.45-.19,1.7,1.7,0,0,0,.36-.28.94.94,0,0,0,.22-.35l.95.29A2,2,0,0,1,75,41a2.31,2.31,0,0,1-.56.45,3.05,3.05,0,0,1-1.53.41A2.87,2.87,0,0,1,70.83,41a2.93,2.93,0,0,1-.6-1A3.13,3.13,0,0,1,70,38.91Z"/><path class="cls-2" d="M78.42,41.91a2.07,2.07,0,0,1-.76-.14,1.88,1.88,0,0,1-.61-.38,1.8,1.8,0,0,1-.41-.57,1.68,1.68,0,0,1-.15-.71,1.49,1.49,0,0,1,.18-.72,1.65,1.65,0,0,1,.5-.56,2.6,2.6,0,0,1,.77-.36,3.44,3.44,0,0,1,1-.13,4.81,4.81,0,0,1,.85.08,4,4,0,0,1,.76.21v-.46A1.39,1.39,0,0,0,79,36.65a3.22,3.22,0,0,0-1.83.67l-.32-.63a4,4,0,0,1,2.24-.75,2.46,2.46,0,0,1,1.77.61,2.25,2.25,0,0,1,.63,1.71v2.35c0,.23.1.35.31.35v.84l-.25,0h-.21a.61.61,0,0,1-.46-.17.7.7,0,0,1-.2-.41l0-.41a2.5,2.5,0,0,1-1,.79A3,3,0,0,1,78.42,41.91Zm.25-.73a2.41,2.41,0,0,0,1-.19,1.59,1.59,0,0,0,.68-.51.61.61,0,0,0,.21-.43V39.2a4,4,0,0,0-1.47-.28,2.08,2.08,0,0,0-1.19.31.93.93,0,0,0-.46.8,1.09,1.09,0,0,0,.09.45,1.08,1.08,0,0,0,.26.36,1.27,1.27,0,0,0,.4.24A1.38,1.38,0,0,0,78.68,41.18Z"/><path class="cls-2" d="M83.11,38.91a3.15,3.15,0,0,1,.21-1.15,2.83,2.83,0,0,1,.6-.94,2.89,2.89,0,0,1,.92-.64,2.92,2.92,0,0,1,1.2-.24,2.79,2.79,0,0,1,1.48.38,2.48,2.48,0,0,1,.94,1l-.95.3a1.57,1.57,0,0,0-.62-.63,1.75,1.75,0,0,0-.88-.23,1.8,1.8,0,0,0-.75.16,1.78,1.78,0,0,0-.61.45,2.17,2.17,0,0,0-.4.67,2.45,2.45,0,0,0,0,1.7,2.28,2.28,0,0,0,.41.69,1.88,1.88,0,0,0,.61.46,1.71,1.71,0,0,0,.74.17,1.8,1.8,0,0,0,.5-.07,1.92,1.92,0,0,0,.45-.19,1.72,1.72,0,0,0,.36-.28,1,1,0,0,0,.22-.35l.95.29a2,2,0,0,1-.37.58,2.31,2.31,0,0,1-.56.45,3,3,0,0,1-.71.3,3,3,0,0,1-.82.11A2.88,2.88,0,0,1,83.93,41a3,3,0,0,1-.6-1A3.11,3.11,0,0,1,83.11,38.91Z"/><path class="cls-2" d="M90.21,43.36l.29,0h.22a.47.47,0,0,0,.24-.06.65.65,0,0,0,.21-.24,4,4,0,0,0,.24-.49l.33-.82L89.3,36h1l2,4.88L94.05,36H95l-2.8,7.26a1.68,1.68,0,0,1-.51.68,1.52,1.52,0,0,1-1,.29h-.2l-.26,0Z"/><path class="cls-2" d="M39.48,49.46a1.61,1.61,0,0,0-.35-.3,3.15,3.15,0,0,0-.5-.26,3.49,3.49,0,0,0-.6-.19,3.18,3.18,0,0,0-.68-.07A2.13,2.13,0,0,0,36,49a1.14,1.14,0,0,0-.42.94,1,1,0,0,0,.12.53,1,1,0,0,0,.38.36,2.89,2.89,0,0,0,.65.26l.92.23a9.65,9.65,0,0,1,1.1.3,3.22,3.22,0,0,1,.84.42,1.7,1.7,0,0,1,.53.62,2,2,0,0,1,.18.89,2,2,0,0,1-.22,1,2,2,0,0,1-.6.68,2.6,2.6,0,0,1-.9.4,4.73,4.73,0,0,1-1.12.13,5.19,5.19,0,0,1-1.71-.28,4.78,4.78,0,0,1-1.47-.82l.47-.84a2.59,2.59,0,0,0,.46.37,3.75,3.75,0,0,0,.64.34,4.78,4.78,0,0,0,.77.24,3.9,3.9,0,0,0,.87.09,2.41,2.41,0,0,0,1.3-.3,1.1,1.1,0,0,0,.31-1.45,1.28,1.28,0,0,0-.44-.39,3.35,3.35,0,0,0-.71-.29l-1-.26a9.61,9.61,0,0,1-1-.31,2.87,2.87,0,0,1-.75-.4,1.51,1.51,0,0,1-.46-.56,1.87,1.87,0,0,1-.15-.79,2.24,2.24,0,0,1,.21-1,2.08,2.08,0,0,1,.58-.73,2.55,2.55,0,0,1,.89-.45,4.07,4.07,0,0,1,1.13-.15,3.94,3.94,0,0,1,2.57.89Z"/><path class="cls-2" d="M42,57.21l.29,0h.22a.47.47,0,0,0,.24-.06.65.65,0,0,0,.21-.24,4.3,4.3,0,0,0,.24-.49l.33-.82-2.44-5.75h1l2,4.88,1.79-4.88h.93l-2.8,7.26a1.67,1.67,0,0,1-.51.68,1.52,1.52,0,0,1-1,.29h-.2l-.26,0Z"/><path class="cls-2" d="M50,55.76a4.47,4.47,0,0,1-1.37-.21,3.37,3.37,0,0,1-1.16-.62l.42-.65a4.08,4.08,0,0,0,1,.58A3,3,0,0,0,50,55a1.76,1.76,0,0,0,1-.25.79.79,0,0,0,.37-.7.63.63,0,0,0-.1-.36.83.83,0,0,0-.3-.26,2.44,2.44,0,0,0-.51-.2l-.72-.19q-.52-.13-.89-.25a2.39,2.39,0,0,1-.62-.29,1,1,0,0,1-.35-.4,1.33,1.33,0,0,1-.11-.57,1.68,1.68,0,0,1,.17-.77,1.63,1.63,0,0,1,.47-.56,2.12,2.12,0,0,1,.7-.34,3.11,3.11,0,0,1,.87-.12,3.46,3.46,0,0,1,1.21.21,3,3,0,0,1,.95.55l-.44.58a2.47,2.47,0,0,0-.82-.48A2.77,2.77,0,0,0,50,50.5a1.69,1.69,0,0,0-.9.23.78.78,0,0,0-.37.72.69.69,0,0,0,.07.33A.62.62,0,0,0,49,52a1.85,1.85,0,0,0,.42.18l.62.17q.57.13,1,.27a2.88,2.88,0,0,1,.71.33,1.25,1.25,0,0,1,.42.44,1.28,1.28,0,0,1,.14.62,1.53,1.53,0,0,1-.62,1.28A2.67,2.67,0,0,1,50,55.76Z"/><path class="cls-2" d="M56.86,55.36l-.23.1-.33.12a2.87,2.87,0,0,1-.4.1,2.52,2.52,0,0,1-.45,0,1.47,1.47,0,0,1-.92-.29,1.07,1.07,0,0,1-.39-.91V50.65h-.78v-.76h.78V48h1v1.92h1.29v.76H55.13v3.57a.6.6,0,0,0,.21.46.71.71,0,0,0,.44.14,1.41,1.41,0,0,0,.52-.09l.33-.15Z"/><path class="cls-2" d="M60.68,55.76a2.93,2.93,0,0,1-1.19-.24,2.81,2.81,0,0,1-.93-.64,2.94,2.94,0,0,1-.6-1,3.13,3.13,0,0,1-.21-1.15A3.09,3.09,0,0,1,58,51.62a2.89,2.89,0,0,1,2.73-1.83,2.8,2.8,0,0,1,2.67,1.82,3.09,3.09,0,0,1,.2,1.11c0,.08,0,.15,0,.22a1.3,1.3,0,0,1,0,.15H58.77a2.24,2.24,0,0,0,.2.78,2,2,0,0,0,.43.61,2,2,0,0,0,.6.4,1.79,1.79,0,0,0,.71.14,1.9,1.9,0,0,0,.52-.07,2.23,2.23,0,0,0,.47-.19,1.63,1.63,0,0,0,.39-.3,1.2,1.2,0,0,0,.26-.4l.84.23a2.13,2.13,0,0,1-.39.58,2.59,2.59,0,0,1-.57.46,3,3,0,0,1-.72.3A3.09,3.09,0,0,1,60.68,55.76Zm2-3.37a2.06,2.06,0,0,0-.2-.76A2,2,0,0,0,62,51,2,2,0,0,0,60,50.66a1.86,1.86,0,0,0-.6.39,2,2,0,0,0-.42.59,2.15,2.15,0,0,0-.19.75Z"/><path class="cls-2" d="M73.77,55.65h-1V52.43a2.41,2.41,0,0,0-.29-1.33,1,1,0,0,0-.87-.43,1.54,1.54,0,0,0-1.06.42,2.34,2.34,0,0,0-.67,1.1v3.46h-1V52.43a2.43,2.43,0,0,0-.29-1.34,1,1,0,0,0-.86-.42,1.57,1.57,0,0,0-1.06.41,2.25,2.25,0,0,0-.67,1.1v3.47h-1V49.89H66v1.23a2.61,2.61,0,0,1,.92-1,2.37,2.37,0,0,1,1.27-.35,1.63,1.63,0,0,1,1.15.39,1.69,1.69,0,0,1,.52,1A2.4,2.4,0,0,1,72,49.79a1.74,1.74,0,0,1,.83.18,1.4,1.4,0,0,1,.54.51,2.35,2.35,0,0,1,.29.77,4.91,4.91,0,0,1,.09,1Z"/><g id="Shape_1_copy_3" data-name="Shape 1 copy 3" class="cls-3"><rect class="cls-4" x="42.45" y="67.74" width="6.81" height="18.74"/></g><g id="Shape_1_copy_4" data-name="Shape 1 copy 4"><rect class="cls-4" x="50.82" y="67.74" width="6.81" height="18.74"/></g><g id="Shape_1_copy_5" data-name="Shape 1 copy 5" class="cls-5"><rect class="cls-4" x="59.19" y="67.74" width="6.81" height="18.74"/></g></g></g></svg>