<svg xmlns="http://www.w3.org/2000/svg" viewBox="0 0 569.88 453.48"><defs><style>.cls-1,.cls-11{fill:#fff;}.cls-2{fill:#44b5dd;}.cls-12,.cls-3{font-size:13.18px;fill:#2a88bb;font-family:Raleway-Regular, Raleway;}.cls-3{letter-spacing:0.07em;}.cls-4{letter-spacing:0.08em;}.cls-5{letter-spacing:0.07em;}.cls-12,.cls-6{letter-spacing:0.08em;}.cls-7{letter-spacing:0.07em;}.cls-8{letter-spacing:0.05em;}.cls-9{letter-spacing:0.08em;}.cls-10{letter-spacing:0.06em;}.cls-11,.cls-38{font-size:21.96px;font-family:AktivGrotesk-Bold, Aktiv Grotesk;font-weight:700;letter-spacing:0.08em;}.cls-13{letter-spacing:0.05em;}.cls-14{letter-spacing:0.08em;}.cls-15{letter-spacing:0.07em;}.cls-16{letter-spacing:0.07em;}.cls-17{letter-spacing:0.07em;}.cls-18{letter-spacing:0.07em;}.cls-19{letter-spacing:0.06em;}.cls-20{letter-spacing:0.08em;}.cls-21{letter-spacing:0.05em;}.cls-22{letter-spacing:0.05em;}.cls-23{letter-spacing:0.05em;}.cls-24{letter-spacing:0.03em;}.cls-25{letter-spacing:0.07em;}.cls-26{letter-spacing:0.05em;}.cls-27{letter-spacing:0.06em;}.cls-28{fill:#483281;}.cls-29{fill:#ee2b5f;}.cls-30{fill:none;stroke:#2a88bb;stroke-miterlimit:10;}.cls-31,.cls-32,.cls-33,.cls-34,.cls-35,.cls-36,.cls-37{fill:#e6e7e8;}.cls-32{opacity:0.75;}.cls-33{opacity:0.5;}.cls-34{opacity:0.8;}.cls-35{opacity:0.63;}.cls-36{opacity:0.47;}.cls-37{opacity:0.4;}.cls-38{fill:#2c88bb;}</style></defs><title>Diagram_2</title><g id="Layer_2" data-name="Layer 2"><g id="Layer_1-2" data-name="Layer 1"><rect class="cls-1" width="569.88" height="453.48"/><circle class="cls-2" cx="466.22" cy="71.19" r="27.22"/><text class="cls-3" transform="translate(248.38 74.18)">P<tspan class="cls-4" x="9.13" y="0">e</tspan><tspan class="cls-5" x="17.92" y="0">r</tspan><tspan class="cls-6" x="23.51" y="0">acide added </tspan><tspan class="cls-7" x="115.59" y="0">t</tspan><tspan class="cls-6" x="120.89" y="0">o</tspan><tspan class="cls-8" x="129.78" y="0"> </tspan><tspan class="cls-7" x="133.84" y="0">w</tspan><tspan class="cls-9" x="145.44" y="0">a</tspan><tspan class="cls-7" x="153.62" y="0">t</tspan><tspan class="cls-6" x="158.92" y="0">e</tspan><tspan class="cls-10" x="167.71" y="0">r</tspan></text><text class="cls-11" transform="translate(458.56 78.37)">1</text><text class="cls-12" transform="translate(134.6 172.41)">Initia<tspan class="cls-13" x="34.61" y="0">l</tspan><tspan x="38.84" y="0"> </tspan><tspan class="cls-14" x="43.26" y="0">c</tspan><tspan x="51.48" y="0">olou</tspan><tspan class="cls-10" x="82.79" y="0">r</tspan><tspan class="cls-4" x="88.15" y="0" xml:space="preserve"> change </tspan><tspan class="cls-15" x="148.96" y="0">P</tspan><tspan x="158.09" y="0">e</tspan><tspan class="cls-16" x="166.88" y="0">r</tspan><tspan x="172.46" y="0">acide disso</tspan><tspan class="cls-17" x="252.38" y="0">l</tspan><tspan x="256.87" y="0">ving</tspan></text><text class="cls-12" transform="translate(180.84 255.1)">Colou<tspan class="cls-10" x="41.4" y="0">r</tspan><tspan x="46.76" y="0" xml:space="preserve"> change disso</tspan><tspan class="cls-18" x="144.58" y="0">l</tspan><tspan class="cls-19" x="149.08" y="0">v</tspan><tspan x="156.92" y="0">e </tspan><tspan class="cls-20" x="170.12" y="0">c</tspan><tspan class="cls-4" x="178.34" y="0">ompl</tspan><tspan class="cls-9" x="214.22" y="0">e</tspan><tspan class="cls-7" x="222.95" y="0">t</tspan><tspan class="cls-4" x="228.25" y="0">e. </tspan><tspan x="69.14" y="19.33">Solution is </tspan><tspan class="cls-21" x="147.85" y="19.33">r</tspan><tspan x="153.19" y="19.33">ead</tspan><tspan class="cls-22" x="179.46" y="19.33">y</tspan><tspan class="cls-4" x="187.3" y="19.33"> </tspan><tspan class="cls-21" x="191.71" y="19.33">f</tspan><tspan x="196.77" y="19.33">o</tspan><tspan class="cls-10" x="205.67" y="19.33">r</tspan><tspan x="211.03" y="19.33" xml:space="preserve"> use</tspan></text><text class="cls-12" transform="translate(138.93 346.09)">Solution has lost al<tspan class="cls-23" x="135.52" y="0">l</tspan><tspan x="139.75" y="0"> </tspan><tspan class="cls-20" x="144.16" y="0">c</tspan><tspan x="152.38" y="0">olou</tspan><tspan class="cls-24" x="183.69" y="0">r</tspan><tspan x="188.76" y="0">, </tspan><tspan class="cls-25" x="197.2" y="0">e</tspan><tspan x="205.92" y="0">ffica </tspan><tspan class="cls-5" x="237.58" y="0">c</tspan><tspan class="cls-26" x="245.78" y="0">y</tspan><tspan x="253.62" y="0" xml:space="preserve"> has </tspan><tspan x="8.93" y="19.33">been lost and should n</tspan><tspan class="cls-27" x="171.38" y="19.33">o</tspan><tspan class="cls-8" x="180.03" y="19.33">w</tspan><tspan class="cls-4" x="191.44" y="19.33" xml:space="preserve"> be disposed</tspan></text><circle class="cls-28" cx="466.44" cy="166.88" r="27.22"/><circle class="cls-29" cx="466.44" cy="261.48" r="27.22"/><circle class="cls-30" cx="466.44" cy="356.07" r="27.22"/><circle class="cls-31" cx="466.6" cy="105.66" r="2.21"/><circle class="cls-32" cx="466.6" cy="112.04" r="1.59"/><circle class="cls-33" cx="466.6" cy="117.43" r="1.13"/><circle class="cls-31" cx="466.6" cy="134.14" r="2.21"/><circle class="cls-32" cx="466.6" cy="127.76" r="1.59"/><circle class="cls-33" cx="466.6" cy="122.36" r="1.13"/><circle class="cls-33" cx="466.44" cy="19.69" r="1.13"/><circle class="cls-31" cx="466.44" cy="36.4" r="2.21"/><circle class="cls-32" cx="466.44" cy="30.02" r="1.59"/><circle class="cls-33" cx="466.44" cy="24.62" r="1.13"/><circle class="cls-31" cx="466.6" cy="199.94" r="2.21"/><circle class="cls-32" cx="466.6" cy="206.32" r="1.59"/><circle class="cls-33" cx="466.6" cy="211.72" r="1.13"/><circle class="cls-31" cx="466.6" cy="228.42" r="2.21"/><circle class="cls-32" cx="466.6" cy="222.04" r="1.59"/><circle class="cls-33" cx="466.6" cy="216.65" r="1.13"/><circle class="cls-31" cx="466.44" cy="294.79" r="2.21"/><circle class="cls-32" cx="466.44" cy="301.17" r="1.59"/><circle class="cls-33" cx="466.44" cy="306.56" r="1.13"/><circle class="cls-31" cx="466.44" cy="323.27" r="2.21"/><circle class="cls-32" cx="466.44" cy="316.89" r="1.59"/><circle class="cls-33" cx="466.44" cy="311.49" r="1.13"/><circle class="cls-31" cx="466.56" cy="392.38" r="2.21"/><circle class="cls-31" cx="466.56" cy="398.76" r="1.59"/><circle class="cls-31" cx="466.56" cy="404.16" r="1.13"/><circle class="cls-34" cx="466.56" cy="409.09" r="1.13"/><circle class="cls-35" cx="466.56" cy="413.82" r="1.13"/><circle class="cls-36" cx="466.56" cy="418.75" r="1.13"/><circle class="cls-35" cx="466.56" cy="423.48" r="1.13"/><circle class="cls-36" cx="466.56" cy="428.41" r="1.13"/><circle class="cls-37" cx="466.56" cy="433.34" r="1.13"/><circle class="cls-37" cx="313.18" cy="435.69" r="1.13"/><circle class="cls-37" cx="313.18" cy="440.62" r="1.13"/><text class="cls-11" transform="translate(460.15 174.68)">2</text><text class="cls-11" transform="translate(460.15 269.27)">3</text><text class="cls-38" transform="translate(458.56 363.01)">4</text></g></g></svg>