<svg xmlns="http://www.w3.org/2000/svg" viewBox="0 0 41.83 49.9"><defs><style>.cls-1,.cls-3{fill:none;}.cls-1{stroke:#e6e7e8;}.cls-1,.cls-3,.cls-4{stroke-miterlimit:10;stroke-width:0.75px;}.cls-2{fill:#fff;}.cls-3,.cls-4{stroke:#fff;}.cls-4{fill:#e6e7e8;}</style></defs><title>Intro_icon2</title><g id="Layer_2" data-name="Layer 2"><g id="Layer_1-2" data-name="Layer 1"><path class="cls-1" d="M41.46,29A20.53,20.53,0,1,1,26.37,9.18,20.54,20.54,0,0,1,41.46,29Z"/><path class="cls-2" d="M22.32,29.27a1.5,1.5,0,1,1-1.1-1.44A1.5,1.5,0,0,1,22.32,29.27Z"/><path class="cls-1" d="M26.37,3.71V9.07a20.62,20.62,0,0,0-10.92,0V3.71Z"/><rect class="cls-1" x="14.07" y="0.38" width="13.69" height="3.34"/><line class="cls-3" x1="20.92" y1="11.44" x2="20.91" y2="13.99"/><line class="cls-3" x1="33.47" y1="16.82" x2="31.66" y2="18.63"/><line class="cls-3" x1="38.37" y1="29.26" x2="35.81" y2="29.27"/><line class="cls-3" x1="33.08" y1="41.54" x2="31.26" y2="39.74"/><line class="cls-3" x1="20.96" y1="46.53" x2="20.93" y2="43.97"/><line class="cls-3" x1="8.36" y1="41.33" x2="10.14" y2="39.5"/><line class="cls-3" x1="3.27" y1="28.97" x2="5.83" y2="28.92"/><line class="cls-3" x1="8.37" y1="16.61" x2="10.22" y2="18.38"/><line class="cls-4" x1="20.96" y1="29.27" x2="25.78" y2="24.45"/><line class="cls-4" x1="20.92" y1="28.77" x2="20.92" y2="16.82"/></g></g></svg>