<svg xmlns="http://www.w3.org/2000/svg" viewBox="0 0 59.42 44.18"><defs><style>.cls-1{fill:none;stroke:#fff;stroke-miterlimit:10;stroke-width:0.75px;}</style></defs><title>Intro_icon1</title><g id="Layer_2" data-name="Layer 2"><g id="Layer_1-2" data-name="Layer 1"><path class="cls-1" d="M.26,32.45s9.58-9.52,15.08-9.63,9.75,1.42,13.22,2.26a41.57,41.57,0,0,0,14.81.57c4.9-.72,1.07,3.71-4,5.39-2.49.83-11.21,1.14-13,.25"/><path class="cls-1" d="M7.73,43.86a61.6,61.6,0,0,1,6.45-3.54c3.59-1.47,14,2.59,19.81.87C40.46,39.26,59.52,28.35,59,25c-.4-2.74-4.78-.81-6.93.26-1.79.89-9.11,4-9.11,4"/><path class="cls-1" d="M36.58.73s-3.67,5.72-4.15,8.12,1.65,5.58,4.45,5.16a4.22,4.22,0,0,0,3.54-4.8C40,6.86,36.58.73,36.58.73Z"/></g></g></svg>